<?xml version="1.0" encoding="utf-8"?>
<!-- Generator: Adobe Illustrator 23.0.3, SVG Export Plug-In . SVG Version: 6.00 Build 0)  -->
<svg version="1.1" id="Layer_1" xmlns="http://www.w3.org/2000/svg" xmlns:xlink="http://www.w3.org/1999/xlink" x="0px" y="0px"
	 viewBox="0 0 455 455" style="enable-background:new 0 0 455 455;" xml:space="preserve">
<style type="text/css">
	.st0{fill-rule:evenodd;clip-rule:evenodd;fill:#FFFFFF;}
</style>
<title>Asset 2</title>
<g>
	<g id="Layer_1-2">
		<path class="st0" d="M305.5,104.3H149.5c-24.9,0-45.1,20.2-45.2,45.2v156.1c0,24.9,20.2,45.1,45.2,45.2h156.1
			c24.9,0,45.2-20.2,45.2-45.2V149.5C350.7,124.5,330.5,104.3,305.5,104.3z M227.5,308.6c-44.8,0-81.1-36.3-81.1-81.1
			s36.3-81.1,81.1-81.1s81.1,36.3,81.1,81.1v0C308.6,272.3,272.3,308.6,227.5,308.6L227.5,308.6z M311.3,163.2
			c-10.6,0-19.2-8.6-19.2-19.2c0-10.6,8.6-19.2,19.2-19.2c10.6,0,19.2,8.6,19.2,19.2c0,0,0,0.1,0,0.1
			C330.4,154.6,321.8,163.1,311.3,163.2L311.3,163.2z"/>
		<path class="st0" d="M227.5,180.7c-25.9,0-46.9,21-46.9,46.8s21,46.9,46.8,46.9s46.9-21,46.9-46.8c0,0,0,0,0,0
			C274.3,201.6,253.4,180.7,227.5,180.7z"/>
		<path class="st0" d="M0,0v455h455V0H0z M385,305.5c0,43.9-35.6,79.4-79.5,79.5H149.5c-43.9,0-79.4-35.6-79.5-79.5V149.5
			c0-43.9,35.6-79.4,79.5-79.5h156.1c43.9,0,79.4,35.6,79.5,79.5V305.5z"/>
	</g>
</g>
</svg>
