<svg xmlns="http://www.w3.org/2000/svg" viewBox="0 0 455 455"><defs><style>.cls-1{fill:#252525;fill-rule:evenodd;}</style></defs><title>Asset 2</title><g id="Layer_2" data-name="Layer 2"><g id="Layer_1-2" data-name="Layer 1"><path class="cls-1" d="M305.53,104.3H149.47a45.22,45.22,0,0,0-45.17,45.17V305.53a45.23,45.23,0,0,0,45.17,45.18H305.53a45.23,45.23,0,0,0,45.18-45.18V149.47A45.23,45.23,0,0,0,305.53,104.3Zm-78,204.32a81.12,81.12,0,1,1,81.12-81.12A81.21,81.21,0,0,1,227.5,308.62Zm83.73-145.46A19.2,19.2,0,1,1,330.42,144,19.22,19.22,0,0,1,311.23,163.16Z"/><path class="cls-1" d="M227.5,180.66a46.85,46.85,0,1,0,46.84,46.84A46.91,46.91,0,0,0,227.5,180.66Z"/><path class="cls-1" d="M0,0V455H455V0ZM385,305.53A79.53,79.53,0,0,1,305.53,385H149.47A79.53,79.53,0,0,1,70,305.53V149.47A79.54,79.54,0,0,1,149.47,70H305.53A79.53,79.53,0,0,1,385,149.47Z"/></g></g></svg>